<mxfile host="app.diagrams.net" modified="2024-05-03T17:56:47.376Z" agent="Mozilla/5.0 (Windows NT 10.0; Win64; x64) AppleWebKit/537.36 (KHTML, like Gecko) Chrome/124.0.0.0 Safari/537.36" etag="67KaE8DdWKVh0inwC6GP" version="24.3.1" type="device">
  <diagram name="Page-1" id="UJrtcXH8dCIsfuyqZj8E">
    <mxGraphModel dx="1035" dy="551" grid="1" gridSize="10" guides="1" tooltips="1" connect="1" arrows="1" fold="1" page="1" pageScale="1" pageWidth="850" pageHeight="1100" math="0" shadow="0">
      <root>
        <mxCell id="0" />
        <mxCell id="1" parent="0" />
        <mxCell id="NEOYnJ_DiRF9hAonfaQD-1" value="PassionFrameWork" style="rounded=0;whiteSpace=wrap;html=1;" vertex="1" parent="1">
          <mxGeometry x="340" y="40" width="130" height="30" as="geometry" />
        </mxCell>
        <mxCell id="NEOYnJ_DiRF9hAonfaQD-2" value="Has" style="rhombus;whiteSpace=wrap;html=1;" vertex="1" parent="1">
          <mxGeometry x="380" y="110" width="50" height="50" as="geometry" />
        </mxCell>
        <mxCell id="NEOYnJ_DiRF9hAonfaQD-3" value="" style="endArrow=none;html=1;rounded=0;" edge="1" parent="1">
          <mxGeometry width="50" height="50" relative="1" as="geometry">
            <mxPoint x="160" y="135" as="sourcePoint" />
            <mxPoint x="380" y="134.5" as="targetPoint" />
          </mxGeometry>
        </mxCell>
        <mxCell id="NEOYnJ_DiRF9hAonfaQD-4" value="" style="endArrow=none;html=1;rounded=0;" edge="1" parent="1">
          <mxGeometry width="50" height="50" relative="1" as="geometry">
            <mxPoint x="430" y="134.5" as="sourcePoint" />
            <mxPoint x="650" y="135" as="targetPoint" />
          </mxGeometry>
        </mxCell>
        <mxCell id="NEOYnJ_DiRF9hAonfaQD-5" value="User" style="rounded=0;whiteSpace=wrap;html=1;" vertex="1" parent="1">
          <mxGeometry x="100" y="170" width="130" height="30" as="geometry" />
        </mxCell>
        <mxCell id="NEOYnJ_DiRF9hAonfaQD-6" value="Admin" style="rounded=0;whiteSpace=wrap;html=1;" vertex="1" parent="1">
          <mxGeometry x="570" y="170" width="130" height="30" as="geometry" />
        </mxCell>
        <mxCell id="NEOYnJ_DiRF9hAonfaQD-7" value="" style="endArrow=none;html=1;rounded=0;" edge="1" parent="1">
          <mxGeometry width="50" height="50" relative="1" as="geometry">
            <mxPoint x="160" y="170" as="sourcePoint" />
            <mxPoint x="160" y="130" as="targetPoint" />
          </mxGeometry>
        </mxCell>
        <mxCell id="NEOYnJ_DiRF9hAonfaQD-8" value="" style="endArrow=none;html=1;rounded=0;exitX=0.623;exitY=-0.1;exitDx=0;exitDy=0;exitPerimeter=0;" edge="1" parent="1" source="NEOYnJ_DiRF9hAonfaQD-6">
          <mxGeometry width="50" height="50" relative="1" as="geometry">
            <mxPoint x="590" y="190" as="sourcePoint" />
            <mxPoint x="650" y="130" as="targetPoint" />
          </mxGeometry>
        </mxCell>
        <mxCell id="NEOYnJ_DiRF9hAonfaQD-9" value="" style="endArrow=none;html=1;rounded=0;exitX=0.5;exitY=0;exitDx=0;exitDy=0;" edge="1" parent="1" source="NEOYnJ_DiRF9hAonfaQD-2">
          <mxGeometry width="50" height="50" relative="1" as="geometry">
            <mxPoint x="360" y="120" as="sourcePoint" />
            <mxPoint x="405" y="70" as="targetPoint" />
          </mxGeometry>
        </mxCell>
        <mxCell id="NEOYnJ_DiRF9hAonfaQD-10" value="Has" style="rhombus;whiteSpace=wrap;html=1;" vertex="1" parent="1">
          <mxGeometry x="140" y="270" width="50" height="50" as="geometry" />
        </mxCell>
        <mxCell id="NEOYnJ_DiRF9hAonfaQD-11" value="" style="endArrow=none;html=1;rounded=0;" edge="1" parent="1" source="NEOYnJ_DiRF9hAonfaQD-10">
          <mxGeometry width="50" height="50" relative="1" as="geometry">
            <mxPoint x="120" y="250" as="sourcePoint" />
            <mxPoint x="165" y="200" as="targetPoint" />
          </mxGeometry>
        </mxCell>
        <mxCell id="NEOYnJ_DiRF9hAonfaQD-12" value="" style="endArrow=none;html=1;rounded=0;" edge="1" parent="1">
          <mxGeometry width="50" height="50" relative="1" as="geometry">
            <mxPoint x="165" y="360" as="sourcePoint" />
            <mxPoint x="164.5" y="320" as="targetPoint" />
          </mxGeometry>
        </mxCell>
        <mxCell id="NEOYnJ_DiRF9hAonfaQD-13" value="Research" style="rounded=0;whiteSpace=wrap;html=1;" vertex="1" parent="1">
          <mxGeometry x="100" y="360" width="130" height="30" as="geometry" />
        </mxCell>
        <mxCell id="NEOYnJ_DiRF9hAonfaQD-14" value="Research" style="rounded=0;whiteSpace=wrap;html=1;" vertex="1" parent="1">
          <mxGeometry x="100" y="360" width="130" height="30" as="geometry" />
        </mxCell>
        <mxCell id="NEOYnJ_DiRF9hAonfaQD-15" value="Ideation" style="rounded=0;whiteSpace=wrap;html=1;" vertex="1" parent="1">
          <mxGeometry x="250" y="280" width="130" height="30" as="geometry" />
        </mxCell>
        <mxCell id="NEOYnJ_DiRF9hAonfaQD-16" value="" style="endArrow=none;html=1;rounded=0;exitX=1;exitY=0.5;exitDx=0;exitDy=0;entryX=0;entryY=0.5;entryDx=0;entryDy=0;" edge="1" parent="1" source="NEOYnJ_DiRF9hAonfaQD-10" target="NEOYnJ_DiRF9hAonfaQD-15">
          <mxGeometry width="50" height="50" relative="1" as="geometry">
            <mxPoint x="200" y="340" as="sourcePoint" />
            <mxPoint x="250" y="290" as="targetPoint" />
          </mxGeometry>
        </mxCell>
        <mxCell id="NEOYnJ_DiRF9hAonfaQD-17" value="" style="endArrow=none;html=1;rounded=0;" edge="1" parent="1">
          <mxGeometry width="50" height="50" relative="1" as="geometry">
            <mxPoint x="380" y="300" as="sourcePoint" />
            <mxPoint x="440" y="300" as="targetPoint" />
          </mxGeometry>
        </mxCell>
        <mxCell id="NEOYnJ_DiRF9hAonfaQD-18" value="" style="endArrow=none;html=1;rounded=0;exitX=1;exitY=0.5;exitDx=0;exitDy=0;" edge="1" parent="1" source="NEOYnJ_DiRF9hAonfaQD-14" target="NEOYnJ_DiRF9hAonfaQD-19">
          <mxGeometry width="50" height="50" relative="1" as="geometry">
            <mxPoint x="230" y="380" as="sourcePoint" />
            <mxPoint x="400" y="380" as="targetPoint" />
          </mxGeometry>
        </mxCell>
        <mxCell id="NEOYnJ_DiRF9hAonfaQD-19" value="Create" style="rhombus;whiteSpace=wrap;html=1;" vertex="1" parent="1">
          <mxGeometry x="410" y="350" width="50" height="50" as="geometry" />
        </mxCell>
        <mxCell id="NEOYnJ_DiRF9hAonfaQD-20" value="" style="endArrow=none;html=1;rounded=0;exitX=0.5;exitY=0;exitDx=0;exitDy=0;" edge="1" parent="1" source="NEOYnJ_DiRF9hAonfaQD-19">
          <mxGeometry width="50" height="50" relative="1" as="geometry">
            <mxPoint x="430" y="350" as="sourcePoint" />
            <mxPoint x="435" y="300" as="targetPoint" />
          </mxGeometry>
        </mxCell>
        <mxCell id="NEOYnJ_DiRF9hAonfaQD-21" value="" style="endArrow=none;html=1;rounded=0;exitX=1;exitY=0.5;exitDx=0;exitDy=0;" edge="1" parent="1" source="NEOYnJ_DiRF9hAonfaQD-19">
          <mxGeometry width="50" height="50" relative="1" as="geometry">
            <mxPoint x="460" y="380" as="sourcePoint" />
            <mxPoint x="530" y="375" as="targetPoint" />
          </mxGeometry>
        </mxCell>
        <mxCell id="NEOYnJ_DiRF9hAonfaQD-22" value="Group" style="rounded=0;whiteSpace=wrap;html=1;" vertex="1" parent="1">
          <mxGeometry x="530" y="360" width="130" height="30" as="geometry" />
        </mxCell>
        <mxCell id="NEOYnJ_DiRF9hAonfaQD-23" value="" style="endArrow=none;html=1;rounded=0;" edge="1" parent="1">
          <mxGeometry width="50" height="50" relative="1" as="geometry">
            <mxPoint x="604.5" y="440" as="sourcePoint" />
            <mxPoint x="604.5" y="390" as="targetPoint" />
          </mxGeometry>
        </mxCell>
        <mxCell id="NEOYnJ_DiRF9hAonfaQD-24" value="Interview" style="rounded=0;whiteSpace=wrap;html=1;" vertex="1" parent="1">
          <mxGeometry x="540" y="700" width="130" height="30" as="geometry" />
        </mxCell>
        <mxCell id="NEOYnJ_DiRF9hAonfaQD-25" value="Opportunity" style="rounded=0;whiteSpace=wrap;html=1;" vertex="1" parent="1">
          <mxGeometry x="530" y="540" width="130" height="30" as="geometry" />
        </mxCell>
        <mxCell id="NEOYnJ_DiRF9hAonfaQD-26" value="Has" style="rhombus;whiteSpace=wrap;html=1;" vertex="1" parent="1">
          <mxGeometry x="580" y="440" width="50" height="50" as="geometry" />
        </mxCell>
        <mxCell id="NEOYnJ_DiRF9hAonfaQD-27" value="" style="endArrow=none;html=1;rounded=0;" edge="1" parent="1">
          <mxGeometry width="50" height="50" relative="1" as="geometry">
            <mxPoint x="604.5" y="540" as="sourcePoint" />
            <mxPoint x="604.5" y="490" as="targetPoint" />
          </mxGeometry>
        </mxCell>
        <mxCell id="NEOYnJ_DiRF9hAonfaQD-28" value="Shedule" style="rhombus;whiteSpace=wrap;html=1;" vertex="1" parent="1">
          <mxGeometry x="580" y="610" width="50" height="50" as="geometry" />
        </mxCell>
        <mxCell id="NEOYnJ_DiRF9hAonfaQD-29" value="Get" style="rhombus;whiteSpace=wrap;html=1;" vertex="1" parent="1">
          <mxGeometry x="580" y="770" width="50" height="50" as="geometry" />
        </mxCell>
        <mxCell id="NEOYnJ_DiRF9hAonfaQD-30" value="Application" style="rounded=0;whiteSpace=wrap;html=1;" vertex="1" parent="1">
          <mxGeometry x="540" y="860" width="130" height="30" as="geometry" />
        </mxCell>
        <mxCell id="NEOYnJ_DiRF9hAonfaQD-31" value="" style="endArrow=none;html=1;rounded=0;exitX=0.5;exitY=0;exitDx=0;exitDy=0;entryX=0.5;entryY=1;entryDx=0;entryDy=0;" edge="1" parent="1" source="NEOYnJ_DiRF9hAonfaQD-30" target="NEOYnJ_DiRF9hAonfaQD-29">
          <mxGeometry width="50" height="50" relative="1" as="geometry">
            <mxPoint x="550" y="870" as="sourcePoint" />
            <mxPoint x="600" y="820" as="targetPoint" />
          </mxGeometry>
        </mxCell>
        <mxCell id="NEOYnJ_DiRF9hAonfaQD-32" value="" style="endArrow=none;html=1;rounded=0;exitX=0.5;exitY=0;exitDx=0;exitDy=0;" edge="1" parent="1" source="NEOYnJ_DiRF9hAonfaQD-29">
          <mxGeometry width="50" height="50" relative="1" as="geometry">
            <mxPoint x="560" y="780" as="sourcePoint" />
            <mxPoint x="605" y="730" as="targetPoint" />
          </mxGeometry>
        </mxCell>
        <mxCell id="NEOYnJ_DiRF9hAonfaQD-33" value="" style="endArrow=none;html=1;rounded=0;exitX=0.5;exitY=0;exitDx=0;exitDy=0;entryX=0.5;entryY=1;entryDx=0;entryDy=0;" edge="1" parent="1" source="NEOYnJ_DiRF9hAonfaQD-24" target="NEOYnJ_DiRF9hAonfaQD-28">
          <mxGeometry width="50" height="50" relative="1" as="geometry">
            <mxPoint x="560" y="710" as="sourcePoint" />
            <mxPoint x="610" y="660" as="targetPoint" />
          </mxGeometry>
        </mxCell>
        <mxCell id="NEOYnJ_DiRF9hAonfaQD-34" value="" style="endArrow=none;html=1;rounded=0;exitX=0.5;exitY=0;exitDx=0;exitDy=0;entryX=0.569;entryY=0.933;entryDx=0;entryDy=0;entryPerimeter=0;" edge="1" parent="1" source="NEOYnJ_DiRF9hAonfaQD-28" target="NEOYnJ_DiRF9hAonfaQD-25">
          <mxGeometry width="50" height="50" relative="1" as="geometry">
            <mxPoint x="560" y="620" as="sourcePoint" />
            <mxPoint x="610" y="570" as="targetPoint" />
          </mxGeometry>
        </mxCell>
        <mxCell id="NEOYnJ_DiRF9hAonfaQD-35" value="Email" style="ellipse;whiteSpace=wrap;html=1;" vertex="1" parent="1">
          <mxGeometry x="100" y="90" width="60" height="20" as="geometry" />
        </mxCell>
        <mxCell id="NEOYnJ_DiRF9hAonfaQD-36" value="Designation" style="ellipse;whiteSpace=wrap;html=1;" vertex="1" parent="1">
          <mxGeometry x="100" y="230" width="60" height="20" as="geometry" />
        </mxCell>
        <mxCell id="NEOYnJ_DiRF9hAonfaQD-37" value="phn_no" style="ellipse;whiteSpace=wrap;html=1;" vertex="1" parent="1">
          <mxGeometry x="30" y="210" width="60" height="20" as="geometry" />
        </mxCell>
        <mxCell id="NEOYnJ_DiRF9hAonfaQD-38" value="photo" style="ellipse;whiteSpace=wrap;html=1;" vertex="1" parent="1">
          <mxGeometry x="10" y="150" width="60" height="20" as="geometry" />
        </mxCell>
        <mxCell id="NEOYnJ_DiRF9hAonfaQD-39" value="Name" style="ellipse;whiteSpace=wrap;html=1;" vertex="1" parent="1">
          <mxGeometry x="30" y="100" width="60" height="20" as="geometry" />
        </mxCell>
        <mxCell id="NEOYnJ_DiRF9hAonfaQD-40" value="" style="endArrow=none;html=1;rounded=0;exitX=0.25;exitY=0;exitDx=0;exitDy=0;" edge="1" parent="1" source="NEOYnJ_DiRF9hAonfaQD-5">
          <mxGeometry width="50" height="50" relative="1" as="geometry">
            <mxPoint x="80" y="160" as="sourcePoint" />
            <mxPoint x="130" y="110" as="targetPoint" />
          </mxGeometry>
        </mxCell>
        <mxCell id="NEOYnJ_DiRF9hAonfaQD-41" value="" style="endArrow=none;html=1;rounded=0;exitX=0;exitY=0;exitDx=0;exitDy=0;" edge="1" parent="1" source="NEOYnJ_DiRF9hAonfaQD-5">
          <mxGeometry width="50" height="50" relative="1" as="geometry">
            <mxPoint x="30" y="170" as="sourcePoint" />
            <mxPoint x="80" y="120" as="targetPoint" />
          </mxGeometry>
        </mxCell>
        <mxCell id="NEOYnJ_DiRF9hAonfaQD-42" value="" style="endArrow=none;html=1;rounded=0;exitX=1;exitY=0;exitDx=0;exitDy=0;" edge="1" parent="1" source="NEOYnJ_DiRF9hAonfaQD-37">
          <mxGeometry width="50" height="50" relative="1" as="geometry">
            <mxPoint x="80" y="220" as="sourcePoint" />
            <mxPoint x="100" y="195" as="targetPoint" />
          </mxGeometry>
        </mxCell>
        <mxCell id="NEOYnJ_DiRF9hAonfaQD-43" value="" style="endArrow=none;html=1;rounded=0;exitX=1;exitY=1;exitDx=0;exitDy=0;" edge="1" parent="1" source="NEOYnJ_DiRF9hAonfaQD-38">
          <mxGeometry width="50" height="50" relative="1" as="geometry">
            <mxPoint x="50" y="230" as="sourcePoint" />
            <mxPoint x="100" y="180" as="targetPoint" />
          </mxGeometry>
        </mxCell>
        <mxCell id="NEOYnJ_DiRF9hAonfaQD-44" value="" style="endArrow=none;html=1;rounded=0;exitX=0.5;exitY=0;exitDx=0;exitDy=0;" edge="1" parent="1" source="NEOYnJ_DiRF9hAonfaQD-36">
          <mxGeometry width="50" height="50" relative="1" as="geometry">
            <mxPoint x="100" y="250" as="sourcePoint" />
            <mxPoint x="150" y="200" as="targetPoint" />
          </mxGeometry>
        </mxCell>
        <mxCell id="NEOYnJ_DiRF9hAonfaQD-45" value="Email" style="ellipse;whiteSpace=wrap;html=1;" vertex="1" parent="1">
          <mxGeometry x="210" y="220" width="60" height="20" as="geometry" />
        </mxCell>
        <mxCell id="NEOYnJ_DiRF9hAonfaQD-46" value="Phn_no" style="ellipse;whiteSpace=wrap;html=1;" vertex="1" parent="1">
          <mxGeometry x="240" y="190" width="60" height="20" as="geometry" />
        </mxCell>
        <mxCell id="NEOYnJ_DiRF9hAonfaQD-47" value="Roll_no" style="ellipse;whiteSpace=wrap;html=1;" vertex="1" parent="1">
          <mxGeometry x="410" y="240" width="60" height="20" as="geometry" />
        </mxCell>
        <mxCell id="NEOYnJ_DiRF9hAonfaQD-48" value="organization" style="ellipse;whiteSpace=wrap;html=1;" vertex="1" parent="1">
          <mxGeometry x="310" y="190" width="60" height="20" as="geometry" />
        </mxCell>
        <mxCell id="NEOYnJ_DiRF9hAonfaQD-49" value="City" style="ellipse;whiteSpace=wrap;html=1;" vertex="1" parent="1">
          <mxGeometry x="375" y="210" width="60" height="20" as="geometry" />
        </mxCell>
        <mxCell id="NEOYnJ_DiRF9hAonfaQD-50" value="Name" style="ellipse;whiteSpace=wrap;html=1;" vertex="1" parent="1">
          <mxGeometry x="190" y="250" width="60" height="20" as="geometry" />
        </mxCell>
        <mxCell id="NEOYnJ_DiRF9hAonfaQD-51" value="" style="endArrow=none;html=1;rounded=0;exitX=0.595;exitY=-0.131;exitDx=0;exitDy=0;exitPerimeter=0;" edge="1" parent="1" source="NEOYnJ_DiRF9hAonfaQD-15">
          <mxGeometry width="50" height="50" relative="1" as="geometry">
            <mxPoint x="330" y="270" as="sourcePoint" />
            <mxPoint x="340" y="210" as="targetPoint" />
          </mxGeometry>
        </mxCell>
        <mxCell id="NEOYnJ_DiRF9hAonfaQD-52" value="" style="endArrow=none;html=1;rounded=0;" edge="1" parent="1">
          <mxGeometry width="50" height="50" relative="1" as="geometry">
            <mxPoint x="340" y="280" as="sourcePoint" />
            <mxPoint x="390" y="230" as="targetPoint" />
          </mxGeometry>
        </mxCell>
        <mxCell id="NEOYnJ_DiRF9hAonfaQD-53" value="" style="endArrow=none;html=1;rounded=0;entryX=0;entryY=0.5;entryDx=0;entryDy=0;entryPerimeter=0;" edge="1" parent="1" target="NEOYnJ_DiRF9hAonfaQD-47">
          <mxGeometry width="50" height="50" relative="1" as="geometry">
            <mxPoint x="380" y="290" as="sourcePoint" />
            <mxPoint x="410" y="260" as="targetPoint" />
          </mxGeometry>
        </mxCell>
        <mxCell id="NEOYnJ_DiRF9hAonfaQD-54" value="" style="endArrow=none;html=1;rounded=0;exitX=0.25;exitY=0;exitDx=0;exitDy=0;" edge="1" parent="1" source="NEOYnJ_DiRF9hAonfaQD-15">
          <mxGeometry width="50" height="50" relative="1" as="geometry">
            <mxPoint x="220" y="280" as="sourcePoint" />
            <mxPoint x="270" y="230" as="targetPoint" />
          </mxGeometry>
        </mxCell>
        <mxCell id="NEOYnJ_DiRF9hAonfaQD-55" value="" style="endArrow=none;html=1;rounded=0;exitX=0.378;exitY=-0.131;exitDx=0;exitDy=0;exitPerimeter=0;" edge="1" parent="1" source="NEOYnJ_DiRF9hAonfaQD-15">
          <mxGeometry width="50" height="50" relative="1" as="geometry">
            <mxPoint x="240" y="260" as="sourcePoint" />
            <mxPoint x="290" y="210" as="targetPoint" />
          </mxGeometry>
        </mxCell>
        <mxCell id="NEOYnJ_DiRF9hAonfaQD-56" value="" style="endArrow=none;html=1;rounded=0;" edge="1" parent="1" target="NEOYnJ_DiRF9hAonfaQD-15">
          <mxGeometry width="50" height="50" relative="1" as="geometry">
            <mxPoint x="250" y="265" as="sourcePoint" />
            <mxPoint x="300" y="215" as="targetPoint" />
          </mxGeometry>
        </mxCell>
        <mxCell id="NEOYnJ_DiRF9hAonfaQD-57" value="Id" style="ellipse;whiteSpace=wrap;html=1;" vertex="1" parent="1">
          <mxGeometry y="180" width="60" height="20" as="geometry" />
        </mxCell>
        <mxCell id="NEOYnJ_DiRF9hAonfaQD-58" value="" style="endArrow=none;html=1;rounded=0;entryX=0;entryY=0.5;entryDx=0;entryDy=0;" edge="1" parent="1" target="NEOYnJ_DiRF9hAonfaQD-5">
          <mxGeometry width="50" height="50" relative="1" as="geometry">
            <mxPoint x="60" y="190" as="sourcePoint" />
            <mxPoint x="110" y="140" as="targetPoint" />
          </mxGeometry>
        </mxCell>
        <mxCell id="NEOYnJ_DiRF9hAonfaQD-59" value="Id" style="ellipse;whiteSpace=wrap;html=1;" vertex="1" parent="1">
          <mxGeometry x="440" y="270" width="60" height="20" as="geometry" />
        </mxCell>
        <mxCell id="NEOYnJ_DiRF9hAonfaQD-60" value="" style="endArrow=none;html=1;rounded=0;exitX=1;exitY=0.5;exitDx=0;exitDy=0;" edge="1" parent="1" source="NEOYnJ_DiRF9hAonfaQD-15">
          <mxGeometry width="50" height="50" relative="1" as="geometry">
            <mxPoint x="390" y="330" as="sourcePoint" />
            <mxPoint x="440" y="280" as="targetPoint" />
          </mxGeometry>
        </mxCell>
        <mxCell id="NEOYnJ_DiRF9hAonfaQD-61" value="Opp_name" style="ellipse;whiteSpace=wrap;html=1;" vertex="1" parent="1">
          <mxGeometry x="420" y="840" width="60" height="20" as="geometry" />
        </mxCell>
        <mxCell id="NEOYnJ_DiRF9hAonfaQD-63" value="name" style="ellipse;whiteSpace=wrap;html=1;" vertex="1" parent="1">
          <mxGeometry x="460" y="890" width="60" height="20" as="geometry" />
        </mxCell>
        <mxCell id="NEOYnJ_DiRF9hAonfaQD-64" value="Id" style="ellipse;whiteSpace=wrap;html=1;" vertex="1" parent="1">
          <mxGeometry x="500" y="820" width="60" height="20" as="geometry" />
        </mxCell>
        <mxCell id="NEOYnJ_DiRF9hAonfaQD-65" value="Cont&lt;span style=&quot;color: rgba(0, 0, 0, 0); font-family: monospace; font-size: 0px; text-align: start; text-wrap: nowrap;&quot;&gt;%3CmxGraphModel%3E%3Croot%3E%3CmxCell%20id%3D%220%22%2F%3E%3CmxCell%20id%3D%221%22%20parent%3D%220%22%2F%3E%3CmxCell%20id%3D%222%22%20value%3D%22Id%22%20style%3D%22ellipse%3BwhiteSpace%3Dwrap%3Bhtml%3D1%3B%22%20vertex%3D%221%22%20parent%3D%221%22%3E%3CmxGeometry%20x%3D%22420%22%20y%3D%22852%22%20width%3D%2260%22%20height%3D%2220%22%20as%3D%22geometry%22%2F%3E%3C%2FmxCell%3E%3C%2Froot%3E%3C%2FmxGraphModel%3E&lt;/span&gt;act" style="ellipse;whiteSpace=wrap;html=1;" vertex="1" parent="1">
          <mxGeometry x="690" y="832" width="60" height="20" as="geometry" />
        </mxCell>
        <mxCell id="NEOYnJ_DiRF9hAonfaQD-66" value="Status" style="ellipse;whiteSpace=wrap;html=1;" vertex="1" parent="1">
          <mxGeometry x="700" y="890" width="60" height="20" as="geometry" />
        </mxCell>
        <mxCell id="NEOYnJ_DiRF9hAonfaQD-67" value="" style="endArrow=none;html=1;rounded=0;exitX=1;exitY=0;exitDx=0;exitDy=0;" edge="1" parent="1" source="NEOYnJ_DiRF9hAonfaQD-30">
          <mxGeometry width="50" height="50" relative="1" as="geometry">
            <mxPoint x="640" y="890" as="sourcePoint" />
            <mxPoint x="690" y="840" as="targetPoint" />
          </mxGeometry>
        </mxCell>
        <mxCell id="NEOYnJ_DiRF9hAonfaQD-68" value="" style="endArrow=none;html=1;rounded=0;exitX=1;exitY=1;exitDx=0;exitDy=0;" edge="1" parent="1" source="NEOYnJ_DiRF9hAonfaQD-30">
          <mxGeometry width="50" height="50" relative="1" as="geometry">
            <mxPoint x="650" y="950" as="sourcePoint" />
            <mxPoint x="700" y="900" as="targetPoint" />
          </mxGeometry>
        </mxCell>
        <mxCell id="NEOYnJ_DiRF9hAonfaQD-69" value="" style="endArrow=none;html=1;rounded=0;exitX=0;exitY=0;exitDx=0;exitDy=0;" edge="1" parent="1" source="NEOYnJ_DiRF9hAonfaQD-30">
          <mxGeometry width="50" height="50" relative="1" as="geometry">
            <mxPoint x="480" y="890" as="sourcePoint" />
            <mxPoint x="530" y="840" as="targetPoint" />
          </mxGeometry>
        </mxCell>
        <mxCell id="NEOYnJ_DiRF9hAonfaQD-70" value="" style="endArrow=none;html=1;rounded=0;exitX=1;exitY=1;exitDx=0;exitDy=0;" edge="1" parent="1" source="NEOYnJ_DiRF9hAonfaQD-61">
          <mxGeometry width="50" height="50" relative="1" as="geometry">
            <mxPoint x="490" y="925" as="sourcePoint" />
            <mxPoint x="540" y="875" as="targetPoint" />
          </mxGeometry>
        </mxCell>
        <mxCell id="NEOYnJ_DiRF9hAonfaQD-71" value="" style="endArrow=none;html=1;rounded=0;exitX=1;exitY=0.5;exitDx=0;exitDy=0;" edge="1" parent="1" source="NEOYnJ_DiRF9hAonfaQD-63">
          <mxGeometry width="50" height="50" relative="1" as="geometry">
            <mxPoint x="490" y="930" as="sourcePoint" />
            <mxPoint x="540" y="880" as="targetPoint" />
          </mxGeometry>
        </mxCell>
        <mxCell id="NEOYnJ_DiRF9hAonfaQD-72" value="logo" style="ellipse;whiteSpace=wrap;html=1;" vertex="1" parent="1">
          <mxGeometry x="540" y="270" width="60" height="20" as="geometry" />
        </mxCell>
        <mxCell id="NEOYnJ_DiRF9hAonfaQD-73" value="Group" style="ellipse;whiteSpace=wrap;html=1;" vertex="1" parent="1">
          <mxGeometry x="640" y="270" width="60" height="20" as="geometry" />
        </mxCell>
        <mxCell id="NEOYnJ_DiRF9hAonfaQD-74" value="Owner" style="ellipse;whiteSpace=wrap;html=1;" vertex="1" parent="1">
          <mxGeometry x="500" y="300" width="60" height="20" as="geometry" />
        </mxCell>
        <mxCell id="NEOYnJ_DiRF9hAonfaQD-75" value="Id" style="ellipse;whiteSpace=wrap;html=1;" vertex="1" parent="1">
          <mxGeometry x="670" y="310" width="60" height="20" as="geometry" />
        </mxCell>
        <mxCell id="NEOYnJ_DiRF9hAonfaQD-76" value="T_value" style="ellipse;whiteSpace=wrap;html=1;" vertex="1" parent="1">
          <mxGeometry x="590" y="240" width="60" height="20" as="geometry" />
        </mxCell>
        <mxCell id="NEOYnJ_DiRF9hAonfaQD-77" value="" style="endArrow=none;html=1;rounded=0;exitX=1;exitY=0;exitDx=0;exitDy=0;" edge="1" parent="1" source="NEOYnJ_DiRF9hAonfaQD-22">
          <mxGeometry width="50" height="50" relative="1" as="geometry">
            <mxPoint x="640" y="380" as="sourcePoint" />
            <mxPoint x="690" y="330" as="targetPoint" />
          </mxGeometry>
        </mxCell>
        <mxCell id="NEOYnJ_DiRF9hAonfaQD-79" value="" style="endArrow=none;html=1;rounded=0;exitX=0.75;exitY=0;exitDx=0;exitDy=0;" edge="1" parent="1" source="NEOYnJ_DiRF9hAonfaQD-22">
          <mxGeometry width="50" height="50" relative="1" as="geometry">
            <mxPoint x="640" y="350" as="sourcePoint" />
            <mxPoint x="660" y="290" as="targetPoint" />
          </mxGeometry>
        </mxCell>
        <mxCell id="NEOYnJ_DiRF9hAonfaQD-80" value="" style="endArrow=none;html=1;rounded=0;exitX=0.615;exitY=0;exitDx=0;exitDy=0;exitPerimeter=0;" edge="1" parent="1" source="NEOYnJ_DiRF9hAonfaQD-22">
          <mxGeometry width="50" height="50" relative="1" as="geometry">
            <mxPoint x="610" y="350" as="sourcePoint" />
            <mxPoint x="630" y="260" as="targetPoint" />
          </mxGeometry>
        </mxCell>
        <mxCell id="NEOYnJ_DiRF9hAonfaQD-81" value="" style="endArrow=none;html=1;rounded=0;exitX=0.45;exitY=-0.131;exitDx=0;exitDy=0;exitPerimeter=0;" edge="1" parent="1" source="NEOYnJ_DiRF9hAonfaQD-22">
          <mxGeometry width="50" height="50" relative="1" as="geometry">
            <mxPoint x="540" y="340" as="sourcePoint" />
            <mxPoint x="590" y="290" as="targetPoint" />
          </mxGeometry>
        </mxCell>
        <mxCell id="NEOYnJ_DiRF9hAonfaQD-82" value="" style="endArrow=none;html=1;rounded=0;exitX=0.25;exitY=0;exitDx=0;exitDy=0;" edge="1" parent="1" source="NEOYnJ_DiRF9hAonfaQD-22">
          <mxGeometry width="50" height="50" relative="1" as="geometry">
            <mxPoint x="490" y="370" as="sourcePoint" />
            <mxPoint x="540" y="320" as="targetPoint" />
          </mxGeometry>
        </mxCell>
        <mxCell id="NEOYnJ_DiRF9hAonfaQD-83" value="Id" style="ellipse;whiteSpace=wrap;html=1;" vertex="1" parent="1">
          <mxGeometry y="365" width="60" height="20" as="geometry" />
        </mxCell>
        <mxCell id="NEOYnJ_DiRF9hAonfaQD-84" value="r_abstract" style="ellipse;whiteSpace=wrap;html=1;" vertex="1" parent="1">
          <mxGeometry x="200" y="455" width="60" height="20" as="geometry" />
        </mxCell>
        <mxCell id="NEOYnJ_DiRF9hAonfaQD-85" value="r_category" style="ellipse;whiteSpace=wrap;html=1;fontStyle=1" vertex="1" parent="1">
          <mxGeometry x="120" y="470" width="60" height="20" as="geometry" />
        </mxCell>
        <mxCell id="NEOYnJ_DiRF9hAonfaQD-87" value="name" style="ellipse;whiteSpace=wrap;html=1;" vertex="1" parent="1">
          <mxGeometry y="410" width="60" height="20" as="geometry" />
        </mxCell>
        <mxCell id="NEOYnJ_DiRF9hAonfaQD-88" value="Email" style="ellipse;whiteSpace=wrap;html=1;" vertex="1" parent="1">
          <mxGeometry x="260" y="410" width="60" height="20" as="geometry" />
        </mxCell>
        <mxCell id="NEOYnJ_DiRF9hAonfaQD-89" value="r_topic" style="ellipse;whiteSpace=wrap;html=1;" vertex="1" parent="1">
          <mxGeometry x="40" y="455" width="60" height="20" as="geometry" />
        </mxCell>
        <mxCell id="NEOYnJ_DiRF9hAonfaQD-91" value="" style="endArrow=none;html=1;rounded=0;entryX=0;entryY=0;entryDx=0;entryDy=0;" edge="1" parent="1" target="NEOYnJ_DiRF9hAonfaQD-88">
          <mxGeometry width="50" height="50" relative="1" as="geometry">
            <mxPoint x="230" y="390" as="sourcePoint" />
            <mxPoint x="280" y="340" as="targetPoint" />
          </mxGeometry>
        </mxCell>
        <mxCell id="NEOYnJ_DiRF9hAonfaQD-92" value="" style="endArrow=none;html=1;rounded=0;" edge="1" parent="1" source="NEOYnJ_DiRF9hAonfaQD-84">
          <mxGeometry width="50" height="50" relative="1" as="geometry">
            <mxPoint x="220" y="450" as="sourcePoint" />
            <mxPoint x="210" y="390" as="targetPoint" />
          </mxGeometry>
        </mxCell>
        <mxCell id="NEOYnJ_DiRF9hAonfaQD-93" value="" style="endArrow=none;html=1;rounded=0;" edge="1" parent="1" source="NEOYnJ_DiRF9hAonfaQD-85">
          <mxGeometry width="50" height="50" relative="1" as="geometry">
            <mxPoint x="160" y="460" as="sourcePoint" />
            <mxPoint x="160" y="390" as="targetPoint" />
          </mxGeometry>
        </mxCell>
        <mxCell id="NEOYnJ_DiRF9hAonfaQD-95" value="" style="endArrow=none;html=1;rounded=0;" edge="1" parent="1" source="NEOYnJ_DiRF9hAonfaQD-89">
          <mxGeometry width="50" height="50" relative="1" as="geometry">
            <mxPoint x="90" y="440" as="sourcePoint" />
            <mxPoint x="140" y="390" as="targetPoint" />
          </mxGeometry>
        </mxCell>
        <mxCell id="NEOYnJ_DiRF9hAonfaQD-96" value="" style="endArrow=none;html=1;rounded=0;exitX=1;exitY=0;exitDx=0;exitDy=0;" edge="1" parent="1" source="NEOYnJ_DiRF9hAonfaQD-87">
          <mxGeometry width="50" height="50" relative="1" as="geometry">
            <mxPoint x="50" y="440" as="sourcePoint" />
            <mxPoint x="100" y="390" as="targetPoint" />
          </mxGeometry>
        </mxCell>
        <mxCell id="NEOYnJ_DiRF9hAonfaQD-97" value="" style="endArrow=none;html=1;rounded=0;exitX=1;exitY=0.5;exitDx=0;exitDy=0;" edge="1" parent="1" source="NEOYnJ_DiRF9hAonfaQD-83">
          <mxGeometry width="50" height="50" relative="1" as="geometry">
            <mxPoint x="50" y="420" as="sourcePoint" />
            <mxPoint x="100" y="370" as="targetPoint" />
          </mxGeometry>
        </mxCell>
        <mxCell id="NEOYnJ_DiRF9hAonfaQD-98" value="opp_type" style="ellipse;whiteSpace=wrap;html=1;" vertex="1" parent="1">
          <mxGeometry x="430" y="480" width="60" height="20" as="geometry" />
        </mxCell>
        <mxCell id="NEOYnJ_DiRF9hAonfaQD-99" value="name" style="ellipse;whiteSpace=wrap;html=1;" vertex="1" parent="1">
          <mxGeometry x="420" y="580" width="60" height="20" as="geometry" />
        </mxCell>
        <mxCell id="NEOYnJ_DiRF9hAonfaQD-101" value="Location" style="ellipse;whiteSpace=wrap;html=1;" vertex="1" parent="1">
          <mxGeometry x="395" y="540" width="60" height="20" as="geometry" />
        </mxCell>
        <mxCell id="NEOYnJ_DiRF9hAonfaQD-102" value="time" style="ellipse;whiteSpace=wrap;html=1;" vertex="1" parent="1">
          <mxGeometry x="480" y="620" width="60" height="20" as="geometry" />
        </mxCell>
        <mxCell id="NEOYnJ_DiRF9hAonfaQD-103" value="id" style="ellipse;whiteSpace=wrap;html=1;" vertex="1" parent="1">
          <mxGeometry x="510" y="475" width="60" height="20" as="geometry" />
        </mxCell>
        <mxCell id="NEOYnJ_DiRF9hAonfaQD-105" value="" style="endArrow=none;html=1;rounded=0;exitX=1;exitY=0.5;exitDx=0;exitDy=0;" edge="1" parent="1" source="NEOYnJ_DiRF9hAonfaQD-99">
          <mxGeometry width="50" height="50" relative="1" as="geometry">
            <mxPoint x="480" y="615" as="sourcePoint" />
            <mxPoint x="530" y="565" as="targetPoint" />
          </mxGeometry>
        </mxCell>
        <mxCell id="NEOYnJ_DiRF9hAonfaQD-106" value="" style="endArrow=none;html=1;rounded=0;" edge="1" parent="1">
          <mxGeometry width="50" height="50" relative="1" as="geometry">
            <mxPoint x="500" y="620" as="sourcePoint" />
            <mxPoint x="550" y="570" as="targetPoint" />
          </mxGeometry>
        </mxCell>
        <mxCell id="NEOYnJ_DiRF9hAonfaQD-107" value="" style="endArrow=none;html=1;rounded=0;exitX=0;exitY=0.5;exitDx=0;exitDy=0;" edge="1" parent="1" source="NEOYnJ_DiRF9hAonfaQD-25">
          <mxGeometry width="50" height="50" relative="1" as="geometry">
            <mxPoint x="405" y="600" as="sourcePoint" />
            <mxPoint x="455" y="550" as="targetPoint" />
          </mxGeometry>
        </mxCell>
        <mxCell id="NEOYnJ_DiRF9hAonfaQD-108" value="" style="endArrow=none;html=1;rounded=0;exitX=0;exitY=0;exitDx=0;exitDy=0;" edge="1" parent="1" source="NEOYnJ_DiRF9hAonfaQD-25">
          <mxGeometry width="50" height="50" relative="1" as="geometry">
            <mxPoint x="435" y="545" as="sourcePoint" />
            <mxPoint x="485" y="495" as="targetPoint" />
          </mxGeometry>
        </mxCell>
        <mxCell id="NEOYnJ_DiRF9hAonfaQD-109" value="" style="endArrow=none;html=1;rounded=0;exitX=0.25;exitY=0;exitDx=0;exitDy=0;" edge="1" parent="1" source="NEOYnJ_DiRF9hAonfaQD-25">
          <mxGeometry width="50" height="50" relative="1" as="geometry">
            <mxPoint x="490" y="545" as="sourcePoint" />
            <mxPoint x="540" y="495" as="targetPoint" />
          </mxGeometry>
        </mxCell>
        <mxCell id="NEOYnJ_DiRF9hAonfaQD-110" value="createby" style="ellipse;whiteSpace=wrap;html=1;" vertex="1" parent="1">
          <mxGeometry x="450" y="660" width="60" height="20" as="geometry" />
        </mxCell>
        <mxCell id="NEOYnJ_DiRF9hAonfaQD-111" value="assessment" style="ellipse;whiteSpace=wrap;html=1;" vertex="1" parent="1">
          <mxGeometry x="435" y="710" width="60" height="20" as="geometry" />
        </mxCell>
        <mxCell id="NEOYnJ_DiRF9hAonfaQD-112" value="applied" style="ellipse;whiteSpace=wrap;html=1;" vertex="1" parent="1">
          <mxGeometry x="720" y="710" width="60" height="20" as="geometry" />
        </mxCell>
        <mxCell id="NEOYnJ_DiRF9hAonfaQD-113" value="scored" style="ellipse;whiteSpace=wrap;html=1;" vertex="1" parent="1">
          <mxGeometry x="670" y="650" width="60" height="20" as="geometry" />
        </mxCell>
        <mxCell id="NEOYnJ_DiRF9hAonfaQD-114" value="" style="endArrow=none;html=1;rounded=0;exitX=0;exitY=0.75;exitDx=0;exitDy=0;" edge="1" parent="1" source="NEOYnJ_DiRF9hAonfaQD-24">
          <mxGeometry width="50" height="50" relative="1" as="geometry">
            <mxPoint x="445" y="770" as="sourcePoint" />
            <mxPoint x="495" y="720" as="targetPoint" />
          </mxGeometry>
        </mxCell>
        <mxCell id="NEOYnJ_DiRF9hAonfaQD-115" value="" style="endArrow=none;html=1;rounded=0;exitX=0;exitY=0;exitDx=0;exitDy=0;" edge="1" parent="1" source="NEOYnJ_DiRF9hAonfaQD-24">
          <mxGeometry width="50" height="50" relative="1" as="geometry">
            <mxPoint x="460" y="720" as="sourcePoint" />
            <mxPoint x="510" y="670" as="targetPoint" />
          </mxGeometry>
        </mxCell>
        <mxCell id="NEOYnJ_DiRF9hAonfaQD-116" value="" style="endArrow=none;html=1;rounded=0;exitX=1;exitY=0.75;exitDx=0;exitDy=0;" edge="1" parent="1" source="NEOYnJ_DiRF9hAonfaQD-24">
          <mxGeometry width="50" height="50" relative="1" as="geometry">
            <mxPoint x="670" y="770" as="sourcePoint" />
            <mxPoint x="720" y="720" as="targetPoint" />
          </mxGeometry>
        </mxCell>
        <mxCell id="NEOYnJ_DiRF9hAonfaQD-117" value="" style="endArrow=none;html=1;rounded=0;" edge="1" parent="1">
          <mxGeometry width="50" height="50" relative="1" as="geometry">
            <mxPoint x="660" y="700" as="sourcePoint" />
            <mxPoint x="690" y="670" as="targetPoint" />
          </mxGeometry>
        </mxCell>
      </root>
    </mxGraphModel>
  </diagram>
</mxfile>
